<mxfile host="app.diagrams.net" modified="2024-05-20T09:46:39.421Z" agent="Mozilla/5.0 (Windows NT 10.0; Win64; x64) AppleWebKit/537.36 (KHTML, like Gecko) Chrome/125.0.0.0 Safari/537.36" version="24.4.4" etag="dpWbaLToJiMsBoZ67-S2" type="github">
  <diagram name="Page-1" id="LwZlhOCscUpuBmIh1Y4D">
    <mxGraphModel>
      <root>
        <mxCell id="0" />
        <mxCell id="1" parent="0" />
      </root>
    </mxGraphModel>
  </diagram>
</mxfile>
